<svg width="390" height="320" viewBox="0 0 390 320" fill="none" xmlns="http://www.w3.org/2000/svg">
<g clip-path="url(#clip0_6_353)">
<path d="M420 279.16H-30V279.385H420V279.16Z" fill="#EBEBEB"/>
<path d="M374.91 293.641H345.102V293.866H374.91V293.641Z" fill="#EBEBEB"/>
<path d="M268.098 296.089H260.277V296.314H268.098V296.089Z" fill="#EBEBEB"/>
<path d="M344.202 285.289H326.931V285.514H344.202V285.289Z" fill="#EBEBEB"/>
<path d="M56.085 286.801H17.214V287.026H56.085V286.801Z" fill="#EBEBEB"/>
<path d="M69.801 286.801H64.104V287.026H69.801V286.801Z" fill="#EBEBEB"/>
<path d="M172.635 290.599H88.323V290.824H172.635V290.599Z" fill="#EBEBEB"/>
<path d="M183.3 239.02H9.51898C8.15759 239.018 6.85278 238.475 5.89097 237.512C4.92917 236.548 4.38897 235.242 4.38898 233.881V-10.406C4.40083 -11.7596 4.94625 -13.0538 5.90678 -14.0076C6.8673 -14.9614 8.16535 -15.4977 9.51898 -15.5H183.3C184.663 -15.5 185.97 -14.9586 186.934 -13.9948C187.898 -13.0311 188.439 -11.7239 188.439 -10.361V233.881C188.439 235.244 187.898 236.551 186.934 237.515C185.97 238.479 184.663 239.02 183.3 239.02ZM9.51898 -15.32C8.21726 -15.3176 6.96968 -14.7988 6.05007 -13.8775C5.13046 -12.9563 4.61397 -11.7077 4.61398 -10.406V233.881C4.61397 235.183 5.13046 236.431 6.05007 237.353C6.96968 238.274 8.21726 238.793 9.51898 238.795H183.3C184.603 238.793 185.851 238.274 186.772 237.353C187.693 236.432 188.212 235.184 188.214 233.881V-10.406C188.212 -11.7085 187.693 -12.9571 186.772 -13.8781C185.851 -14.7991 184.603 -15.3176 183.3 -15.32H9.51898Z" fill="#EBEBEB"/>
<path d="M377.979 239.02H204.189C202.827 239.018 201.521 238.475 200.558 237.512C199.595 236.549 199.052 235.243 199.05 233.881V-10.406C199.064 -11.7604 199.612 -13.0546 200.574 -14.0082C201.536 -14.9617 202.835 -15.4977 204.189 -15.5H377.979C379.331 -15.4953 380.627 -14.958 381.585 -14.0044C382.544 -13.0509 383.088 -11.758 383.1 -10.406V233.881C383.1 235.241 382.561 236.545 381.601 237.508C380.641 238.472 379.339 239.015 377.979 239.02ZM204.189 -15.32C202.886 -15.3176 201.638 -14.7991 200.717 -13.8781C199.796 -12.9571 199.277 -11.7085 199.275 -10.406V233.881C199.277 235.184 199.796 236.432 200.717 237.353C201.638 238.274 202.886 238.793 204.189 238.795H377.979C379.282 238.793 380.53 238.274 381.451 237.353C382.372 236.432 382.891 235.184 382.893 233.881V-10.406C382.891 -11.7085 382.372 -12.9571 381.451 -13.8781C380.53 -14.7991 379.282 -15.3176 377.979 -15.32H204.189Z" fill="#EBEBEB"/>
<path d="M232.665 11.158H150.855V113.164H232.665V11.158Z" fill="#F5F5F5"/>
<path d="M165.84 24.469C176.145 17.089 176.172 13.039 183.552 21.31C190.932 29.581 196.071 39.589 209.463 34.369C222.855 29.149 230.316 42.658 221.739 55.069C213.162 67.48 216.339 84.49 221.739 92.617C227.139 100.744 224.637 111.697 215.979 105.568C207.321 99.439 195.603 99.448 187.224 103.768C178.845 108.088 169.044 118.771 169.791 100.096C170.538 81.421 160.935 87.271 158.46 77.83C155.985 68.389 167.928 74.374 165.84 53.692C163.752 33.01 156.705 31.021 165.84 24.469Z" fill="#E0E0E0"/>
<path d="M216.24 21.31C203.712 15.757 198.402 13.021 192.534 25.396C186.666 37.771 174.84 54.241 166.308 49.696C157.776 45.151 160.359 65.896 176.748 60.694C193.137 55.492 197.088 58.12 202.848 70.594C208.608 83.068 207.249 90.034 214.206 85.48C221.163 80.926 211.56 66.904 215.502 55.582C219.444 44.26 227.49 26.296 216.24 21.31Z" fill="#EBEBEB"/>
<path d="M172.338 84.481C177.387 74.788 170.538 59.281 183.75 65.797C196.962 72.313 191.427 97.297 202.785 91.375C214.143 85.453 206.448 68.362 216.141 67.525C225.834 66.688 224.781 104.812 210.642 105.586C196.503 106.36 184.299 93.805 180.042 98.143C175.785 102.481 163.905 112.399 161.439 100.114C158.973 87.829 168.45 91.915 172.338 84.481Z" fill="#EBEBEB"/>
<path d="M254.643 115.477L334.149 115.477V8.83599L254.643 8.83599V115.477Z" fill="#F5F5F5"/>
<path d="M265.875 19.546C268.17 15.28 325.059 36.727 323.529 41.362C321.999 45.997 279.078 49.84 275.298 56.113C271.518 62.386 320.757 70.747 319.866 75.013C318.975 79.279 272.4 75.481 271.5 79.72C270.6 83.959 320.586 91.321 317.256 97.72C313.926 104.119 272.427 99.52 267.864 88.72C263.301 77.92 288.42 78.658 289.14 71.503C289.86 64.348 262.365 62.953 265.857 51.46C269.349 39.967 305.457 48.256 302.091 38.23C298.725 28.204 261.519 27.619 265.875 19.546Z" fill="#E6E6E6"/>
<path d="M309.39 20.122C316.815 18.376 325.392 31.651 316.59 28.681C307.788 25.711 301.965 21.859 309.39 20.122Z" fill="#EBEBEB"/>
<path d="M275.883 36.907C276.252 33.208 265.299 33.865 265.173 36.907C265.047 39.949 275.496 40.768 275.883 36.907Z" fill="#EBEBEB"/>
<path d="M317.274 59.2C313.26 52.585 301.461 55.447 301.587 58.498C301.713 61.549 321.603 66.319 317.274 59.2Z" fill="#EBEBEB"/>
<path d="M130.029 8.836H50.523V115.477H130.029V8.836Z" fill="#F5F5F5"/>
<path d="M65.319 86.695C65.319 86.695 57.813 28.6 62.448 21.643C67.083 14.686 76.605 39.814 78.315 33.928C80.025 28.042 81.105 15.514 87.252 16.603C93.399 17.692 91.239 28.501 95.991 28.924C100.743 29.347 106.548 15.1 108.6 16.603C110.652 18.106 108.933 28.078 112.812 28.924C116.691 29.77 115.629 19.249 120.687 22.57C125.745 25.891 117.753 86.695 117.753 86.695C117.753 86.695 120.786 38.833 115.503 38.833C110.22 38.833 108.069 53.692 104.613 46.69C101.157 39.688 104.973 34.639 102.642 33.928C100.311 33.217 95.442 45.754 91.842 44.017C88.242 42.28 89.745 35.071 87.261 33.928C84.777 32.785 94.218 51.028 80.439 46.843C66.66 42.658 68.883 31.309 66.939 35.503C64.995 39.697 65.319 86.695 65.319 86.695Z" fill="#EBEBEB"/>
<path d="M106.098 70.828C100.698 63.7 97.296 77.506 91.176 82.051C85.056 86.596 87.234 65.275 79.341 70.27C71.448 75.265 77.073 88.171 71.844 92.068C66.615 95.965 67.488 109.942 73.356 102.796C79.224 95.65 79.116 76.786 83.535 88.81C87.954 100.834 89.889 112.561 93.777 102.166C97.665 91.771 94.245 75.904 99.996 84.967C105.747 94.03 105.882 106.261 111.642 101.275C117.402 96.289 108.204 93.094 108.429 87.577C108.654 82.06 108.375 73.843 106.098 70.828Z" fill="#EBEBEB"/>
<path d="M340.404 248.731C340.539 247.831 343.689 226.078 337.38 218.572C336.752 217.781 335.957 217.139 335.051 216.692C334.145 216.246 333.152 216.006 332.142 215.989C319.407 215.692 317.661 225.889 317.643 226.024L319.146 226.258C319.209 225.889 320.721 217.258 332.106 217.51C332.9 217.523 333.682 217.713 334.394 218.066C335.105 218.42 335.729 218.928 336.219 219.553C342.096 226.537 338.919 248.29 338.919 248.506L340.404 248.731Z" fill="#EBEBEB"/>
<path d="M341.178 247.741L342.69 247.687C342.69 247.489 342.186 227.671 351.96 223.567C361.527 219.562 365.838 227.806 366.018 228.157L367.377 227.473C367.323 227.374 362.274 217.573 351.366 222.172C340.638 226.672 341.151 246.877 341.178 247.741Z" fill="#EBEBEB"/>
<path d="M341.133 249.298C341.133 248.983 341.223 217.627 347.334 208.456C353.202 199.654 362.634 203.794 363.075 203.956L363.705 202.579C363.588 202.525 352.662 197.701 346.074 207.592C339.702 217.141 339.612 247.966 339.612 249.28L341.133 249.298Z" fill="#EBEBEB"/>
<path d="M330.315 216.745C330.315 216.745 335.877 218.797 334.23 223.639C332.583 228.481 314.988 236.446 314.988 236.446C314.988 236.446 307.626 229.687 314.385 218.716C321.144 207.745 330.171 213.28 330.315 216.745Z" fill="#E0E0E0"/>
<path d="M347.613 206.8C347.613 206.8 343.662 206.377 344.013 203.974C344.364 201.571 359.367 195.379 368.232 205.387C368.232 205.387 362.553 215.143 354.345 215.287C346.137 215.431 347.613 206.8 347.613 206.8Z" fill="#E0E0E0"/>
<path d="M351.663 222.874C351.663 222.874 348.963 220.669 351.879 219.598C354.795 218.527 369.249 218.824 369.402 233.098C369.402 233.098 352.59 235.888 350.502 230.443C348.414 224.998 351.663 222.874 351.663 222.874Z" fill="#E0E0E0"/>
<path d="M327.327 277.846H353.409L356.226 249.298H324.519L327.327 277.846Z" fill="#EBEBEB"/>
<path d="M323.133 252.439H357.621V246.139H323.133V252.439Z" fill="#E0E0E0"/>
<path d="M53.817 251.998C53.817 251.998 58.902 240.901 53.097 229.966C47.292 219.031 45.6 216.466 49.308 214.216C53.016 211.966 54.708 222.964 54.708 222.964C54.708 222.964 57.831 215.404 55.248 207.493C52.665 199.582 51.054 186.694 54.582 185.308C58.11 183.922 55.248 201.382 58.308 207.34C59.8634 203.159 60.8679 198.793 61.296 194.353C61.71 187.999 61.053 177.856 63.834 175.255C66.615 172.654 68.397 174.454 65.634 188.476C63.9977 196.857 63.0943 205.364 62.934 213.901C62.934 213.901 68.964 195.505 73.014 195.001C77.064 194.497 77.064 200.401 73.59 205.585C70.116 210.769 63.447 219.985 62.349 224.773C62.349 224.773 68.973 210.931 74.949 215.179C80.925 219.427 69.756 227.779 64.797 230.803C59.838 233.827 56.4 252.7 56.4 252.7L53.817 251.998Z" fill="#E0E0E0"/>
<path d="M57.831 256.543C57.831 256.543 52.881 245.374 58.821 234.529C64.761 223.684 66.48 221.128 62.799 218.833C59.118 216.538 57.3 227.5 57.3 227.5C57.3 227.5 54.276 219.895 56.949 212.02C59.622 204.145 61.386 191.32 57.849 189.853C54.312 188.386 56.949 205.918 53.862 211.822C52.3569 207.622 51.4039 203.244 51.027 198.799C50.685 192.436 51.459 182.302 48.714 179.656C45.969 177.01 44.214 178.756 46.725 192.85C48.2882 201.249 49.1164 209.768 49.2 218.311C49.2 218.311 43.35 199.834 39.3 199.231C35.25 198.628 35.187 204.631 38.589 209.815C41.991 214.999 48.57 224.386 49.605 229.165C49.605 229.165 43.152 215.224 37.149 219.373C31.146 223.522 42.18 232.054 47.112 235.15C52.044 238.246 55.212 257.236 55.212 257.236L57.831 256.543Z" fill="#EBEBEB"/>
<path d="M34.998 248.578H75.903L72.591 277.846H38.31L34.998 248.578Z" fill="#EBEBEB"/>
<path d="M195 319.804C291.374 319.804 369.501 315.243 369.501 309.616C369.501 303.989 291.374 299.428 195 299.428C98.6258 299.428 20.499 303.989 20.499 309.616C20.499 315.243 98.6258 319.804 195 319.804Z" fill="#F5F5F5"/>
<path d="M186.819 294.622C186.823 295.921 186.514 297.202 185.919 298.357C185.419 299.369 184.625 300.206 183.642 300.76C183.642 300.76 180.267 302.785 179.808 302.983C179.185 303.248 178.514 303.386 177.837 303.388C174.165 303.388 171.195 299.509 171.195 294.721C171.167 292.637 171.78 290.595 172.95 288.871L170.799 277L165.3 246.229L153.42 180.277H162.276L174.129 246.229L179.7 277L181.5 287.359L183.354 288.349C185.379 289.24 186.819 291.706 186.819 294.622Z" fill="#263238"/>
<path opacity="0.4" d="M186.819 294.622C186.823 295.921 186.514 297.202 185.919 298.357C185.419 299.369 184.625 300.206 183.642 300.76C183.642 300.76 180.267 302.785 179.808 302.983C179.185 303.248 178.514 303.386 177.837 303.388C174.165 303.388 171.195 299.509 171.195 294.721C171.167 292.637 171.78 290.595 172.95 288.871L170.799 277L165.3 246.229L153.42 180.277H162.276L174.129 246.229L179.7 277L181.5 287.359L183.354 288.349C185.379 289.24 186.819 291.706 186.819 294.622Z" fill="white"/>
<path opacity="0.2" d="M186.819 294.622C186.819 298.285 184.542 301.264 181.734 301.264C178.926 301.264 176.64 298.285 176.64 294.622C176.64 290.959 178.917 287.98 181.734 287.98C184.551 287.98 186.819 290.95 186.819 294.622Z" fill="white"/>
<path opacity="0.2" d="M179.655 277H170.799L165.273 246.229L153.42 180.277H162.276L174.129 246.229L179.655 277Z" fill="black"/>
<path d="M340.242 200.32H300.579V211.66H340.242V200.32Z" fill="#263238"/>
<path d="M336.768 235.204L349.278 172.492C349.34 172.178 349.333 171.854 349.255 171.543C349.177 171.232 349.031 170.942 348.828 170.694C348.625 170.446 348.37 170.247 348.08 170.109C347.791 169.972 347.474 169.9 347.154 169.9H343.347C342.604 169.9 341.885 170.158 341.31 170.628C340.736 171.099 340.343 171.755 340.197 172.483L327.678 235.195C327.616 235.509 327.623 235.833 327.701 236.144C327.779 236.455 327.925 236.745 328.128 236.993C328.331 237.241 328.586 237.44 328.876 237.578C329.165 237.715 329.482 237.786 329.802 237.787H333.6C334.346 237.791 335.07 237.535 335.648 237.064C336.226 236.593 336.622 235.935 336.768 235.204Z" fill="#263238"/>
<path d="M346.785 197.494H339.099C336.786 197.494 334.923 201.094 334.923 205.594C334.923 210.094 336.786 213.694 339.099 213.694H346.785C349.089 213.694 350.961 210.094 350.961 205.594C350.961 201.094 349.089 197.494 346.785 197.494Z" fill="#263238"/>
<path opacity="0.2" d="M350.448 205.612C350.448 208.951 349.125 211.651 347.487 211.651C345.849 211.651 344.517 208.951 344.517 205.612C344.517 202.273 345.849 199.564 347.487 199.564C349.125 199.564 350.448 202.3 350.448 205.612Z" fill="white"/>
<path opacity="0.2" d="M336.768 235.204L349.278 172.492C349.34 172.178 349.333 171.854 349.255 171.543C349.177 171.232 349.031 170.942 348.828 170.694C348.625 170.446 348.37 170.247 348.08 170.109C347.791 169.972 347.474 169.9 347.154 169.9H343.347C342.604 169.9 341.885 170.158 341.31 170.628C340.736 171.099 340.343 171.755 340.197 172.483L327.678 235.195C327.616 235.509 327.623 235.833 327.701 236.144C327.779 236.455 327.925 236.745 328.128 236.993C328.331 237.241 328.586 237.44 328.876 237.578C329.165 237.715 329.482 237.786 329.802 237.787H333.6C334.346 237.791 335.07 237.535 335.648 237.064C336.226 236.593 336.622 235.935 336.768 235.204Z" fill="white"/>
<path d="M336.219 287.008V307.024H132.621V301.453H175.011L181.5 287.008H336.219Z" fill="#263238"/>
<path opacity="0.2" d="M336.219 287.008V307.024H258.621V301.453H301.011L307.5 287.008H336.219Z" fill="white"/>
<path d="M330.819 294.622C330.823 295.921 330.514 297.202 329.919 298.357C329.419 299.369 328.625 300.206 327.642 300.76C327.642 300.76 324.267 302.785 323.808 302.983C323.185 303.248 322.514 303.386 321.837 303.388C318.165 303.388 315.195 299.509 315.195 294.721C315.181 292.633 315.809 290.59 316.995 288.871L314.799 277L309.3 246.229L297.42 180.277H306.276L318.129 246.229L323.7 277L325.5 287.359L327.354 288.349C329.379 289.24 330.819 291.706 330.819 294.622Z" fill="#263238"/>
<path opacity="0.4" d="M330.819 294.622C330.823 295.921 330.514 297.202 329.919 298.357C329.419 299.369 328.625 300.206 327.642 300.76C327.642 300.76 324.267 302.785 323.808 302.983C323.185 303.248 322.514 303.386 321.837 303.388C318.165 303.388 315.195 299.509 315.195 294.721C315.181 292.633 315.809 290.59 316.995 288.871L314.799 277L309.3 246.229L297.42 180.277H306.276L318.129 246.229L323.7 277L325.5 287.359L327.354 288.349C329.379 289.24 330.819 291.706 330.819 294.622Z" fill="white"/>
<path opacity="0.2" d="M330.819 294.622C330.819 298.285 328.542 301.264 325.734 301.264C322.926 301.264 320.64 298.285 320.64 294.622C320.64 290.959 322.917 287.98 325.734 287.98C328.551 287.98 330.819 290.95 330.819 294.622Z" fill="white"/>
<path opacity="0.2" d="M323.655 277H314.799L309.273 246.229L297.42 180.277H306.276L318.129 246.229L323.655 277Z" fill="black"/>
<path d="M309.057 271.672H120.804C116.817 271.672 114.234 268.387 115.044 264.346L140.604 136.294C141.044 134.287 142.133 132.482 143.703 131.157C145.273 129.833 147.237 129.063 149.289 128.968H337.542C341.529 128.968 344.112 132.253 343.311 136.294L317.751 264.346C317.31 266.353 316.218 268.159 314.647 269.484C313.075 270.808 311.11 271.577 309.057 271.672Z" fill="#263238"/>
<path opacity="0.1" d="M309.057 271.672H120.804C116.817 271.672 114.234 268.387 115.044 264.346L140.604 136.294C141.044 134.287 142.133 132.482 143.703 131.157C145.273 129.833 147.237 129.063 149.289 128.968H337.542C341.529 128.968 344.112 132.253 343.311 136.294L317.751 264.346C317.31 266.353 316.218 268.159 314.647 269.484C313.075 270.808 311.11 271.577 309.057 271.672Z" fill="white"/>
<path d="M299.445 250.603H138.831L160.728 140.911H321.333L299.445 250.603Z" fill="#F3B700"/>
<path opacity="0.2" d="M320.433 217.456H313.314C312.935 217.468 312.559 217.391 312.215 217.231C311.871 217.071 311.57 216.833 311.335 216.535C311.101 216.237 310.939 215.889 310.864 215.517C310.789 215.146 310.802 214.762 310.902 214.396L316.5 186.244C316.683 185.41 317.134 184.658 317.784 184.104C318.434 183.55 319.247 183.224 320.1 183.175H327.3C327.68 183.163 328.058 183.24 328.402 183.401C328.747 183.561 329.049 183.8 329.285 184.099C329.52 184.397 329.682 184.747 329.758 185.119C329.834 185.492 329.821 185.877 329.721 186.244L324.096 214.396C323.911 215.24 323.451 215.999 322.788 216.552C322.125 217.106 321.296 217.424 320.433 217.456Z" fill="white"/>
<path opacity="0.2" d="M327.084 191.563C326.778 192.963 326.019 194.223 324.924 195.148C323.828 196.072 322.459 196.609 321.027 196.675C320.395 196.693 319.767 196.563 319.195 196.295C318.622 196.027 318.12 195.628 317.729 195.131C317.338 194.634 317.069 194.053 316.943 193.433C316.817 192.814 316.838 192.173 317.004 191.563C317.311 190.164 318.072 188.906 319.167 187.984C320.262 187.061 321.631 186.526 323.061 186.46C323.693 186.441 324.32 186.569 324.893 186.836C325.466 187.103 325.968 187.501 326.359 187.997C326.75 188.494 327.02 189.075 327.146 189.694C327.271 190.313 327.25 190.953 327.084 191.563Z" fill="black"/>
<path opacity="0.2" d="M319.695 213.757H315.537C315.395 213.762 315.254 213.734 315.126 213.674C314.997 213.615 314.884 213.526 314.796 213.414C314.709 213.303 314.648 213.172 314.621 213.033C314.593 212.894 314.599 212.751 314.637 212.614L317.472 198.421C317.539 198.108 317.708 197.826 317.952 197.62C318.197 197.413 318.502 197.293 318.822 197.278H322.98C323.122 197.273 323.263 197.301 323.391 197.361C323.52 197.42 323.633 197.509 323.721 197.621C323.808 197.732 323.869 197.863 323.896 198.002C323.924 198.141 323.918 198.284 323.88 198.421L321.045 212.614C320.978 212.927 320.809 213.209 320.565 213.415C320.32 213.622 320.015 213.742 319.695 213.757Z" fill="black"/>
<path d="M164.175 190.834C164.175 190.834 178.116 172.618 186.819 168.514C195.522 164.41 194.1 187.567 199.797 193.615C205.494 199.663 217.959 174.4 226.5 172.258C235.041 170.116 229.839 203.704 237.426 211.651C245.013 219.598 298.572 164.419 298.572 164.419L295.638 171.187L303.135 163.357L295.638 174.4L300.579 169.9C300.579 169.9 275.703 198.997 253.41 213.757C231.117 228.517 227.571 212.857 227.571 207.349C227.571 201.841 227.697 183.778 224.07 183.175C220.443 182.572 206.205 203.632 199.437 205.387C192.669 207.142 190.536 197.287 190.536 197.287C190.536 197.287 193.236 200.626 197.223 200.329C197.223 200.329 192.678 200.518 190.923 190.843C189.168 181.168 188.07 173.689 184.155 176.533C180.24 179.377 168.495 193.633 168.495 193.633L170.151 188.611L159.9 200.32L168.45 188.62L164.175 190.834Z" fill="white"/>
<path d="M153.321 245.869H144.78L146.391 237.805H154.932L153.321 245.869Z" fill="white"/>
<path opacity="0.8" d="M163.392 245.869H154.842L156.453 237.805H164.994L163.392 245.869Z" fill="white"/>
<path opacity="0.6" d="M173.445 245.869H164.904L166.515 237.805H175.056L173.445 245.869Z" fill="white"/>
<path opacity="0.4" d="M183.507 245.869H174.966L176.577 237.805H185.118L183.507 245.869Z" fill="white"/>
<path opacity="0.2" d="M193.569 245.869H185.028L186.639 237.805H195.18L193.569 245.869Z" fill="white"/>
<path d="M243.091 88.7595L189.705 102.855L193.758 118.205L247.144 104.11L243.091 88.7595Z" fill="#F3B700"/>
<path opacity="0.6" d="M243.091 88.7595L189.705 102.855L193.758 118.205L247.144 104.11L243.091 88.7595Z" fill="white"/>
<path d="M201.695 101.236L192.983 103.572L196.174 115.479L204.887 113.144L201.695 101.236Z" fill="#263238"/>
<path opacity="0.8" d="M209.533 99.3388L200.849 101.632L203.983 113.501L212.667 111.208L209.533 99.3388Z" fill="#263238"/>
<path opacity="0.6" d="M220.432 96.189L211.72 98.5243L214.912 110.432L223.624 108.097L220.432 96.189Z" fill="#263238"/>
<path opacity="0.4" d="M228.226 94.3953L219.542 96.6882L222.676 108.557L231.36 106.265L228.226 94.3953Z" fill="#263238"/>
<path opacity="0.2" d="M239.172 91.1505L230.459 93.4858L233.651 105.393L242.364 103.058L239.172 91.1505Z" fill="#263238"/>
<path d="M247.218 88.063H192.003V103.939H247.218V88.063Z" fill="#F3B700"/>
<path opacity="0.7" d="M247.218 88.063H192.003V103.939H247.218V88.063Z" fill="white"/>
<path d="M202.398 89.71H193.416V101.986H202.398V89.71Z" fill="#F3B700"/>
<path opacity="0.8" d="M212.073 89.71H203.091V101.986H212.073V89.71Z" fill="#F3B700"/>
<path opacity="0.6" d="M221.739 89.71H212.757V101.986H221.739V89.71Z" fill="#F3B700"/>
<path opacity="0.4" d="M231.414 89.71H222.432V101.986H231.414V89.71Z" fill="#F3B700"/>
<path opacity="0.2" d="M241.089 89.71H232.107V101.986H241.089V89.71Z" fill="#F3B700"/>
<path d="M244.986 102.967C245.528 102.967 245.967 102.528 245.967 101.986C245.967 101.444 245.528 101.005 244.986 101.005C244.444 101.005 244.005 101.444 244.005 101.986C244.005 102.528 244.444 102.967 244.986 102.967Z" fill="#263238"/>
<path d="M248.676 106.351C248.678 106.54 248.64 106.727 248.567 106.901C248.493 107.075 248.385 107.233 248.248 107.363C248.112 107.494 247.95 107.595 247.773 107.661C247.596 107.727 247.407 107.756 247.218 107.746C245.688 107.746 244.689 106.189 244.14 104.911L245.04 104.677C245.517 105.739 246.255 106.819 247.209 106.819C247.506 106.819 247.713 106.729 247.74 106.279C247.719 105.516 247.478 104.776 247.047 104.146C246.822 103.733 246.517 103.37 246.149 103.078C245.781 102.785 245.358 102.57 244.905 102.445C244.796 102.414 244.702 102.344 244.641 102.249C244.581 102.153 244.558 102.038 244.577 101.926C244.596 101.814 244.655 101.714 244.744 101.643C244.833 101.573 244.945 101.538 245.058 101.545C245.653 101.658 246.208 101.925 246.669 102.319C247.27 102.811 247.759 103.425 248.105 104.12C248.451 104.815 248.646 105.575 248.676 106.351Z" fill="#263238"/>
<g opacity="0.2">
<path d="M248.676 106.351C248.678 106.54 248.64 106.727 248.567 106.901C248.493 107.075 248.385 107.233 248.248 107.363C248.112 107.494 247.95 107.595 247.773 107.661C247.596 107.727 247.407 107.756 247.218 107.746C245.688 107.746 244.689 106.189 244.14 104.911L245.04 104.677C245.517 105.739 246.255 106.819 247.209 106.819C247.506 106.819 247.713 106.729 247.74 106.279C247.719 105.516 247.478 104.776 247.047 104.146C246.822 103.733 246.517 103.37 246.149 103.078C245.781 102.785 245.358 102.57 244.905 102.445C244.796 102.414 244.702 102.344 244.641 102.249C244.581 102.153 244.558 102.038 244.577 101.926C244.596 101.814 244.655 101.714 244.744 101.643C244.833 101.573 244.945 101.538 245.058 101.545C245.653 101.658 246.208 101.925 246.669 102.319C247.27 102.811 247.759 103.425 248.105 104.12C248.451 104.815 248.646 105.575 248.676 106.351Z" fill="white"/>
</g>
<path d="M299.877 105.235C303.999 114.334 306.789 125.323 303.135 128.968C299.481 132.613 286.872 119.338 286.872 119.338L289.707 117.421C289.707 117.421 298.563 122.083 299.022 121.768C299.481 121.453 295.638 108.322 295.638 108.322L299.877 105.235Z" fill="#EBB376"/>
<path d="M238.992 107.44C238.342 106.915 237.723 106.353 237.138 105.757C236.364 104.947 228.093 105.028 227.715 105.919C227.337 106.81 228.921 110.878 230.298 111.319C231.675 111.76 237.498 111.13 238.47 110.545C239.442 109.96 238.992 107.44 238.992 107.44Z" fill="#EBB376"/>
<path d="M274.47 289.51L269.7 289.6C264.813 266.668 261.366 238.3 259.215 216.871C258.882 213.514 258.567 210.337 258.315 207.367C258.189 205.963 258.063 204.604 257.946 203.308C257.37 196.864 256.974 191.761 256.74 188.611C256.569 186.307 256.479 185.011 256.479 185.011H273.84L273.678 189.43L273.138 204.037L273.084 205.702L272.724 215.341L272.112 231.757C278.025 254.878 274.47 289.51 274.47 289.51Z" fill="#EBB376"/>
<path d="M313.413 288.277L308.688 289.177C299.22 265.516 290.328 235.177 284.541 214.036C283.641 210.76 282.822 207.736 282.084 204.91C282.084 204.766 282.021 204.631 281.976 204.496C280.518 198.97 279.402 194.596 278.7 191.77L277.863 188.386L294.963 185.434L295.926 192.634L297.375 203.2L297.654 205.27L298.626 212.47L301.2 231.784C311.028 253.546 313.413 288.277 313.413 288.277Z" fill="#EBB376"/>
<path opacity="0.2" d="M297.375 203.2L282.075 204.91C282.075 204.766 282.012 204.631 281.967 204.496C280.509 198.97 279.393 194.596 278.691 191.77L295.935 192.625L297.375 203.2Z" fill="black"/>
<path opacity="0.2" d="M273.633 189.439L273.093 204.046L273.039 205.711L258.27 207.349C258.144 205.945 258.018 204.586 257.901 203.29C257.325 196.846 256.929 191.743 256.695 188.593L273.633 189.439Z" fill="black"/>
<path d="M260.277 305.449C261.174 304.729 262.192 304.174 263.283 303.811C263.283 303.811 266.559 300.571 268.134 290.797L272.418 289.681C273.144 289.506 273.906 289.558 274.601 289.83C275.297 290.102 275.892 290.581 276.306 291.202C276.431 291.374 276.525 291.565 276.585 291.769C276.801 292.815 276.954 293.873 277.044 294.937C277.277 298.509 277.295 302.091 277.098 305.665H276.324L276.018 298.933C275.91 296.647 274.155 299.329 273.651 301.795C273.147 304.261 272.094 306.871 267.081 306.997C261.231 307.114 258.801 306.88 260.277 305.449Z" fill="#F3B700"/>
<path d="M276.459 291.283C276.738 288.997 276.828 284.983 276.828 284.983L267.315 286.045C267.315 286.045 268.467 290.545 267.513 293.956C272.31 292.732 276.459 291.283 276.459 291.283Z" fill="#F3B700"/>
<path d="M298.995 305.449C299.891 304.727 300.909 304.172 302.001 303.811C302.001 303.811 305.277 300.571 306.852 290.797L311.127 289.681C311.854 289.505 312.618 289.557 313.315 289.829C314.012 290.101 314.608 290.58 315.024 291.202C315.146 291.374 315.238 291.566 315.294 291.769C315.519 292.813 315.672 293.872 315.753 294.937C316.185 298.249 315.816 305.665 315.816 305.665H315.042L314.736 298.933C314.619 296.647 312.873 299.329 312.369 301.795C311.865 304.261 310.803 306.871 305.79 306.997C299.949 307.114 297.519 306.88 298.995 305.449Z" fill="#F3B700"/>
<path d="M315.177 291.283C315.456 288.997 315.546 284.983 315.546 284.983L306.033 286.045C306.033 286.045 307.185 290.545 306.231 293.956C311.028 292.732 315.177 291.283 315.177 291.283Z" fill="#F3B700"/>
<path d="M287.097 87.037C287.027 87.0981 286.952 87.1524 286.872 87.199C285.779 88.035 284.531 88.6467 283.2 88.999C279.312 89.899 276.657 89.368 274.92 87.604C272.499 84.967 271.887 80.296 272.22 74.653C272.281 72.4086 272.697 70.1881 273.453 68.074C273.453 68.074 273.453 67.993 273.453 67.975C273.453 67.957 273.516 67.804 273.552 67.732C274.029 66.5405 274.796 65.4869 275.782 64.6665C276.769 63.8462 277.945 63.285 279.204 63.034C280.298 62.794 281.414 62.6703 282.534 62.665C293.55 62.548 295.521 80.8 287.097 87.037Z" fill="#EBB376"/>
<path opacity="0.2" d="M286.872 87.199C285.77 87.9867 284.521 88.5466 283.2 88.846C279.312 89.746 276.657 89.08 274.92 87.298C277.245 87.874 279.695 87.6716 281.895 86.722C283.47 86.002 285.216 86.371 286.872 87.199Z" fill="black"/>
<path d="M287.988 97.126C288.663 100.258 284.613 101.536 284.613 101.536C277.98 98.701 276.756 95.173 276.756 95.173C282.282 92.293 280.68 84.13 280.68 84.13L281.805 84.688L289.707 86.227C289.707 86.227 287.511 90.439 287.223 91.393C285.729 96.433 287.988 97.126 287.988 97.126Z" fill="#EBB376"/>
<path d="M273.453 68.002C273.453 68.002 272.841 75.706 280.149 79.018C280.149 79.018 283.281 87.028 287.907 87.118C294.207 87.28 299.742 78.316 297.564 69.199C294.738 57.4 276.81 56.419 273.453 68.002Z" fill="#263238"/>
<path d="M276.45 76.804C276.45 75.607 277.422 73.582 279.285 73.861C281.148 74.14 282.291 78.91 277.539 79.972C276.9 80.125 276.441 79.315 276.45 76.804Z" fill="#EBB376"/>
<path d="M286.872 59.812C286.872 59.812 279.519 57.949 275.451 60.901C270.708 64.357 268.908 67.93 274.551 73.501C274.551 73.501 286.899 69.496 291.003 70.351C293.404 70.837 295.761 71.5203 298.05 72.394C298.887 64.213 290.976 58.138 286.872 59.812Z" fill="#263238"/>
<path d="M276.756 60.163C277.215 59.065 278.151 56.68 280.932 57.994C283.713 59.308 285.756 56.455 287.538 56.932C289.32 57.409 291.138 59.398 292.317 59.227C292.907 59.1314 293.51 59.1638 294.086 59.3219C294.663 59.4801 295.198 59.7603 295.656 60.1436C296.115 60.5268 296.485 61.0042 296.743 61.5433C297.001 62.0824 297.14 62.6706 297.15 63.268C297.366 67.111 300.75 67.255 301.065 69.505C301.38 71.755 299.877 72.709 301.065 74.851C302.253 76.993 304.035 76.948 302.613 79.99C301.191 83.032 299.526 83.833 301.308 86.344C303.09 88.855 301.776 91.231 299.166 92.293C299.166 92.293 295.728 88.855 294.063 90.277C292.398 91.699 288.807 93.58 287.223 91.393C286.951 90.9876 286.586 90.6527 286.159 90.4161C285.732 90.1794 285.255 90.0477 284.767 90.0319C284.279 90.0161 283.794 90.1166 283.353 90.3251C282.911 90.5336 282.526 90.8441 282.228 91.231C281.607 92.41 278.628 90.277 276.756 90.277C274.884 90.277 273.885 92.392 273.885 92.392C273.885 92.392 271.347 91.699 272.13 87.793C272.913 83.887 274.65 72.952 273.435 69.865C272.22 66.778 276.756 60.163 276.756 60.163Z" fill="#263238"/>
<path d="M265.983 96.37C265.983 96.37 274.758 93.418 287.988 97.018C301.218 100.618 299.877 105.235 299.877 105.235C299.877 105.235 289.887 123.145 288.573 143.44L260.169 140.677C260.169 140.677 257.037 108.556 265.983 96.37Z" fill="#263238"/>
<path d="M259.071 142.513L259.638 136.924L289.707 139.939L289.077 144.322C300.399 164.374 297.663 187.234 297.663 187.234L299.031 198.484C299.031 198.484 296.196 200.239 277.143 201.481C260.394 202.579 256.137 200.842 256.137 200.842C250.197 166.048 255.3 149.488 259.071 142.513Z" fill="#F3B700"/>
<path opacity="0.6" d="M299.022 198.484C299.022 198.484 296.187 200.239 277.134 201.481C260.385 202.579 256.128 200.842 256.128 200.842C255.93 199.69 255.75 198.565 255.579 197.458C251.979 174.292 253.428 159.658 255.894 150.721C256.637 147.873 257.702 145.119 259.071 142.513L259.278 140.497L259.638 136.897L289.707 139.912L289.077 144.295C300.399 164.347 297.663 187.207 297.663 187.207L298.743 196.117L299.022 198.484Z" fill="white"/>
<path d="M272.076 142.9L258.549 141.829L258.729 137.734L272.382 139.165L272.076 142.9Z" fill="#263238"/>
<path d="M285.621 143.971L273.048 142.981L273.354 139.264L285.891 140.578L285.621 143.971Z" fill="#263238"/>
<path d="M286.863 140.677L290.058 141.019L289.653 144.295L286.593 144.052L286.863 140.677Z" fill="#263238"/>
<path opacity="0.3" d="M279.6 161.161C279.537 163.42 279.456 165.13 279.456 165.13L273.615 169.9L263.652 165.49C263.827 163.927 263.911 162.356 263.904 160.783C263.949 157.408 263.814 153.511 263.724 151.396C263.679 150.433 263.652 149.839 263.652 149.839L279.456 151.72C279.501 152.053 279.537 152.449 279.564 152.881C279.744 155.131 279.699 158.515 279.6 161.161Z" fill="white"/>
<path opacity="0.3" d="M294.9 165.013L291.102 169.378L285.405 165.724C285.398 164.344 285.317 162.965 285.162 161.593C284.852 158.706 284.393 155.837 283.785 152.998C283.614 152.197 283.506 151.72 283.506 151.72H291.93C292.011 151.963 292.101 152.206 292.173 152.458C293.031 155.153 293.713 157.901 294.216 160.684C294.666 163.222 294.9 165.013 294.9 165.013Z" fill="white"/>
<path opacity="0.15" d="M279.6 161.161C279.537 163.42 279.456 165.13 279.456 165.13L273.615 169.9L263.652 165.49C263.827 163.927 263.911 162.356 263.904 160.783C267.478 161.372 270.719 163.232 273.03 166.021C273.712 164.787 274.652 163.714 275.785 162.875C276.919 162.036 278.22 161.452 279.6 161.161Z" fill="black"/>
<path opacity="0.15" d="M263.742 151.396C263.697 150.433 263.67 149.839 263.67 149.839L279.474 151.72C279.519 152.053 279.555 152.449 279.582 152.881L263.742 151.396Z" fill="black"/>
<path opacity="0.15" d="M292.2 152.458L283.812 152.998C283.641 152.197 283.533 151.72 283.533 151.72H291.957C291.993 151.963 292.083 152.206 292.2 152.458Z" fill="black"/>
<path opacity="0.15" d="M294.9 165.013L291.102 169.378L285.405 165.724C285.398 164.344 285.317 162.965 285.162 161.593C286.472 162.009 287.679 162.699 288.702 163.615C289.726 164.532 290.544 165.656 291.102 166.912C291.102 166.912 291.192 162.745 294.216 160.684C294.666 163.222 294.9 165.013 294.9 165.013Z" fill="black"/>
<path opacity="0.15" d="M299.022 198.484C299.022 198.484 296.187 200.239 277.134 201.481C260.385 202.579 256.128 200.842 256.128 200.842C255.93 199.69 255.75 198.565 255.579 197.458L257.325 197.539C256.479 190.42 254.013 166.183 257.73 152.881C257.079 152.205 256.478 151.483 255.93 150.721C256.673 147.873 257.739 145.119 259.107 142.513L259.314 140.497C259.92 140.543 260.521 140.634 261.114 140.767V141.667C261.114 141.667 256.695 157.426 256.695 173.032C256.675 181.27 257.298 189.497 258.558 197.638C271.967 198.118 285.394 197.633 298.734 196.189L299.022 198.484Z" fill="black"/>
<g opacity="0.3">
<path d="M272.076 142.9L258.549 141.829L258.729 137.734L272.382 139.165L272.076 142.9Z" fill="white"/>
<path d="M285.621 143.971L273.048 142.981L273.354 139.264L285.891 140.578L285.621 143.971Z" fill="white"/>
<path d="M286.863 140.677L290.058 141.019L289.653 144.295L286.593 144.052L286.863 140.677Z" fill="white"/>
</g>
<path d="M238.992 107.44L237.426 109.708C237.426 109.708 245.967 122.884 252.258 121.696C258.549 120.508 267.09 107.809 268.278 104.011C269.466 100.213 270.681 95.731 265.983 96.37C261.285 97.009 255.462 113.758 251.304 115.639C247.146 117.52 238.992 107.44 238.992 107.44Z" fill="#EBB376"/>
<path d="M72.2309 67.246C72.2309 67.246 86.4149 67.381 90.4559 69.379C94.4969 71.377 81.825 84.886 77.721 82.555C73.617 80.224 68.2709 72.88 72.2309 67.246Z" fill="#F3B700"/>
<path opacity="0.2" d="M72.2309 67.246C72.2309 67.246 86.4149 67.381 90.4559 69.379C94.4969 71.377 81.825 84.886 77.721 82.555C73.617 80.224 68.2709 72.88 72.2309 67.246Z" fill="black"/>
<path d="M72.159 298.474H63.042C62.8931 298.474 62.7488 298.525 62.6327 298.619C62.5166 298.712 62.4356 298.842 62.403 298.987L60.9 305.674C60.8701 305.82 60.8699 305.97 60.8992 306.115C60.9286 306.261 60.9871 306.399 61.0711 306.522C61.1551 306.645 61.2629 306.749 61.3881 306.829C61.5133 306.909 61.6534 306.963 61.8 306.988H62.043C64.995 306.934 67.146 306.754 70.854 306.754C73.131 306.754 80.025 306.997 83.175 306.997C86.325 306.997 86.775 303.883 85.443 303.595C79.656 302.335 75.3 300.589 73.446 298.924C73.0926 298.611 72.6304 298.449 72.159 298.474Z" fill="#F3B700"/>
<path d="M110.85 298.231H101.724C101.574 298.234 101.43 298.286 101.314 298.381C101.198 298.476 101.117 298.607 101.085 298.753L99.6 305.44C99.5412 305.727 99.5979 306.026 99.7579 306.272C99.9179 306.518 100.168 306.691 100.455 306.754H100.707C103.65 306.709 105.801 306.529 109.509 306.529C111.795 306.529 118.68 306.763 121.83 306.763C124.98 306.763 125.43 303.649 124.107 303.361C118.32 302.101 113.964 300.355 112.11 298.69C111.765 298.38 111.313 298.216 110.85 298.231Z" fill="#F3B700"/>
<path d="M67.326 129.4H107.178C110.967 150.1 122.829 234.115 114.315 299.356H100.815C100.815 299.356 102.066 200.275 90.159 168.253C88.782 185.353 74.859 299.293 74.859 299.293H61.134C61.134 299.293 63.186 256.444 65.238 215.971C66.534 190.465 67.272 134.62 67.326 129.4Z" fill="#263238"/>
<path opacity="0.2" d="M90.168 168.244C92.1287 173.855 93.6188 179.62 94.623 185.479C95.73 170.233 91.275 154.06 91.275 154.06L90.168 168.244Z" fill="black"/>
<path d="M60.162 72.178C73.0851 70.8437 86.1145 70.9071 99.024 72.367C99.024 72.367 105.657 102.742 106.323 131.767H66.201C66.201 131.767 66.165 90.79 60.162 72.178Z" fill="#F3B700"/>
<path opacity="0.6" d="M60.162 72.178C73.0851 70.8437 86.1145 70.9071 99.024 72.367C99.024 72.367 105.657 102.742 106.323 131.767H66.201C66.201 131.767 66.165 90.79 60.162 72.178Z" fill="white"/>
<path d="M74.274 72.979C77.721 76.111 86.163 74.959 86.163 74.959C86.163 74.959 91.437 73.51 90.33 71.863C87.225 71.35 85.722 69.901 85.101 68.047C84.7609 66.8978 84.6538 65.6922 84.786 64.501C84.8375 63.8368 84.9247 63.1759 85.047 62.521L74.607 54.79C75.975 59.893 77.649 69.28 74.274 72.979Z" fill="#E4897B"/>
<path opacity="0.2" d="M77.019 59.704C77.433 66.004 82.581 67.696 85.119 68.047C84.7789 66.8978 84.6718 65.6922 84.804 64.501L77.019 59.704Z" fill="black"/>
<path d="M96 40.3C96 40.3 97.557 50.353 92.229 54.232C86.901 58.111 86.829 39.4 86.829 39.4L96 40.3Z" fill="#263238"/>
<path d="M76.767 62.269C77.8936 63.9188 79.5294 65.1542 81.4245 65.7865C83.3196 66.4187 85.3695 66.4129 87.261 65.77C89.7244 64.9851 91.7946 63.2883 93.048 61.027C93.2231 60.7142 93.3823 60.3928 93.525 60.064C96.135 53.908 96.936 43.153 90.429 39.148C88.2054 37.7637 85.5239 37.3171 82.9717 37.9058C80.4194 38.4945 78.2045 40.0706 76.812 42.289C75.9805 43.6029 75.4745 45.0963 75.336 46.645C74.562 53.8 73.77 58.021 76.767 62.269Z" fill="#E4897B"/>
<path d="M85.821 50.452C85.686 51.019 85.947 51.559 86.334 51.622C86.721 51.685 87.099 51.262 87.234 50.677C87.369 50.092 87.099 49.579 86.721 49.516C86.343 49.453 85.929 49.867 85.821 50.452Z" fill="#263238"/>
<path d="M92.4 51.559C92.265 52.126 92.535 52.657 92.913 52.72C93.291 52.783 93.678 52.36 93.813 51.82C93.948 51.28 93.678 50.713 93.3 50.65C92.922 50.587 92.481 51.001 92.4 51.559Z" fill="#263238"/>
<path d="M90.249 51.487C90.6476 53.3672 91.3017 55.1841 92.193 56.887C91.7456 57.1043 91.2562 57.2217 90.7589 57.2311C90.2616 57.2404 89.7682 57.1414 89.313 56.941L90.249 51.487Z" fill="#DE5753"/>
<path d="M95.2889 49.156C95.2286 49.1777 95.1637 49.1833 95.1006 49.1722C95.0375 49.1612 94.9783 49.1339 94.9289 49.093C94.6117 48.7986 94.2299 48.5826 93.8142 48.4623C93.3985 48.3419 92.9604 48.3206 92.5349 48.4C92.4468 48.42 92.3544 48.4061 92.276 48.3611C92.1976 48.3161 92.1391 48.2432 92.1119 48.157C92.0997 48.1133 92.0963 48.0675 92.1019 48.0225C92.1076 47.9774 92.1221 47.9339 92.1448 47.8946C92.1674 47.8552 92.1976 47.8207 92.2337 47.7931C92.2698 47.7656 92.311 47.7455 92.3549 47.734C92.8906 47.6221 93.4453 47.6396 93.9728 47.7852C94.5003 47.9308 94.9855 48.2002 95.3879 48.571C95.457 48.6303 95.5003 48.7142 95.5087 48.8049C95.5171 48.8956 95.4899 48.986 95.4329 49.057C95.392 49.0993 95.3431 49.1329 95.2889 49.156Z" fill="#263238"/>
<path d="M84.966 47.617C84.8981 47.6008 84.836 47.5666 84.786 47.518C84.7384 47.4401 84.7231 47.3467 84.7432 47.2576C84.7634 47.1685 84.8175 47.0908 84.894 47.041C85.358 46.7444 85.887 46.5649 86.4357 46.5179C86.9844 46.4708 87.5363 46.5577 88.044 46.771C88.1235 46.8133 88.1837 46.8845 88.2122 46.9699C88.2407 47.0554 88.2352 47.1485 88.197 47.23C88.1546 47.3096 88.084 47.3703 87.999 47.4003C87.914 47.4303 87.8209 47.4273 87.738 47.392C87.3336 47.2362 86.8985 47.177 86.4672 47.2192C86.0359 47.2614 85.6205 47.4038 85.254 47.635C85.1594 47.6673 85.0558 47.6608 84.966 47.617Z" fill="#263238"/>
<path d="M82.059 38.635V41.839C81.4928 42.0312 81.0199 42.4298 80.7346 42.9553C80.4494 43.4808 80.3727 44.0945 80.52 44.674C81.222 47.455 79.224 51.397 76.983 52.774C76.983 52.774 77.064 51.613 76.083 51.775C75.102 51.937 74.634 57.967 76.191 61.054C76.191 61.054 73.626 58.12 72.753 51.631C71.952 45.619 72.339 40.741 73.806 38.626L82.059 38.635Z" fill="#263238"/>
<path d="M71.241 52C71.498 52.8639 71.9228 53.6686 72.4911 54.3682C73.0594 55.0677 73.7601 55.6484 74.553 56.077C76.686 57.211 78.27 55.429 78.153 53.152C78 51.127 76.731 48.031 74.373 47.86C72.015 47.689 70.629 49.822 71.241 52Z" fill="#E4897B"/>
<path d="M88.566 58.741C88.0619 59.5057 87.6137 60.3057 87.225 61.135C87.0667 61.0983 86.9104 61.0533 86.757 61C84.651 60.388 83.886 59.407 83.661 58.507C83.5508 58.0668 83.5508 57.6062 83.661 57.166C83.7155 56.917 83.8065 56.6774 83.931 56.455C85.063 57.4095 86.3853 58.1121 87.81 58.516C88.278 58.669 88.566 58.741 88.566 58.741Z" fill="#263238"/>
<path d="M87.846 58.516L87.432 59.218C85.452 58.624 84.138 57.949 83.697 57.166C83.7515 56.917 83.8425 56.6774 83.967 56.455C85.099 57.4095 86.4213 58.1121 87.846 58.516Z" fill="white"/>
<path d="M86.7569 61C84.6509 60.388 83.8859 59.407 83.6609 58.507C84.4575 58.7552 85.204 59.1421 85.866 59.65C86.2966 59.996 86.6081 60.468 86.7569 61Z" fill="#DE5753"/>
<path d="M82.068 41.839C82.068 41.839 98.061 47.302 96.216 36.52C96.216 36.52 87.594 31.426 80.016 32.857C72.438 34.288 73.086 42.073 73.086 42.073L82.068 41.839Z" fill="#263238"/>
<path d="M72.186 69.91C72.186 69.91 73.257 106.603 65.229 141.226L60.162 136.87C60.162 136.87 62.592 93.22 60.162 72.178L72.186 69.91Z" fill="#F3B700"/>
<path d="M90.456 70.504C90.456 70.504 100.914 87.901 105.558 140.056L109.662 138.031C109.662 138.031 104.982 88.054 99.024 72.331L90.456 70.504Z" fill="#F3B700"/>
<path opacity="0.2" d="M65.229 141.226L60.162 136.87C60.162 136.87 61.206 118.114 61.242 99.268C61.242 95.848 61.242 92.419 61.143 89.107C61.008 82.807 60.711 76.921 60.162 72.178L72.186 69.91C72.186 69.91 73.257 106.603 65.229 141.226Z" fill="white"/>
<path opacity="0.2" d="M90.456 70.504C90.456 70.504 100.914 87.901 105.558 140.056L109.662 138.031C109.662 138.031 104.982 88.054 99.024 72.331L90.456 70.504Z" fill="white"/>
<path d="M72.231 67.246C72.231 67.246 73.131 70.297 75.039 71.584L72.195 79V74.905L71.385 76.705L67.839 70.765L72.231 67.246Z" fill="#F3B700"/>
<path d="M87.657 68.524C87.657 68.524 90.888 69.478 93.543 77.524V74.23L96.369 75.625C96.369 75.625 92.301 70.171 91.302 69.514C90.1464 68.995 88.9164 68.6609 87.657 68.524Z" fill="#F3B700"/>
<path d="M93.993 94.192C93.9991 94.2783 93.9881 94.365 93.9606 94.4471C93.9331 94.5291 93.8897 94.6049 93.8328 94.6702C93.776 94.7354 93.7068 94.7887 93.6292 94.8272C93.5517 94.8656 93.4673 94.8883 93.381 94.894L75.966 95.938C75.8813 95.9429 75.7965 95.9308 75.7165 95.9025C75.6366 95.8743 75.563 95.8304 75.5002 95.7734C75.4374 95.7165 75.3865 95.6476 75.3506 95.5708C75.3147 95.4939 75.2944 95.4107 75.291 95.326L74.931 89.143L74.571 82.987C74.5661 82.9004 74.5787 82.8137 74.6079 82.7321C74.6372 82.6505 74.6826 82.5756 74.7413 82.5118C74.8001 82.448 74.871 82.3966 74.95 82.3608C75.0289 82.3249 75.1143 82.3053 75.201 82.303L92.364 81.835C92.529 81.8299 92.6896 81.889 92.8121 81.9997C92.9345 82.1104 93.0094 82.2643 93.021 82.429L93.516 88.405L93.993 94.192Z" fill="#F3B700"/>
<path opacity="0.4" d="M93.993 94.192C93.9991 94.2783 93.9881 94.365 93.9606 94.4471C93.9331 94.5291 93.8897 94.6049 93.8328 94.6702C93.776 94.7354 93.7068 94.7887 93.6292 94.8272C93.5517 94.8656 93.4673 94.8883 93.381 94.894L75.966 95.938C75.8813 95.9429 75.7965 95.9308 75.7165 95.9025C75.6366 95.8743 75.563 95.8304 75.5002 95.7734C75.4374 95.7165 75.3865 95.6476 75.3506 95.5708C75.3147 95.4939 75.2944 95.4107 75.291 95.326L74.931 89.143L74.571 82.987C74.5661 82.9004 74.5787 82.8137 74.6079 82.7321C74.6372 82.6505 74.6826 82.5756 74.7413 82.5118C74.8001 82.448 74.871 82.3966 74.95 82.3608C75.0289 82.3249 75.1143 82.3053 75.201 82.303L92.364 81.835C92.529 81.8299 92.6896 81.889 92.8121 81.9997C92.9345 82.1104 93.0094 82.2643 93.021 82.429L93.516 88.405L93.993 94.192Z" fill="white"/>
<path opacity="0.2" d="M93.993 94.192C93.9991 94.2783 93.9881 94.365 93.9606 94.4471C93.9331 94.5291 93.8897 94.6049 93.8329 94.6702C93.776 94.7354 93.7068 94.7888 93.6292 94.8272C93.5517 94.8656 93.4673 94.8883 93.381 94.894L75.966 95.938C75.8813 95.9429 75.7965 95.9308 75.7166 95.9025C75.6366 95.8743 75.5631 95.8304 75.5002 95.7734C75.4374 95.7165 75.3865 95.6476 75.3506 95.5708C75.3147 95.4939 75.2944 95.4107 75.291 95.326L74.931 89.143C76.056 86.803 77.559 84.193 78.603 84.229C80.502 84.292 79.602 90.25 80.574 91.06C81.546 91.87 84.444 86.299 84.768 86.839C85.092 87.379 85.011 89.278 85.155 89.746C85.263 90.079 90.555 89.026 93.516 88.405L93.993 94.192Z" fill="black"/>
<path opacity="0.3" d="M61.2419 99.268C61.2419 95.848 61.2419 92.419 61.1429 89.107C61.8089 87.649 62.2679 86.695 62.2679 86.695C62.9732 88.7482 63.2461 90.925 63.0695 93.0888C62.893 95.2525 62.2707 97.3563 61.2419 99.268Z" fill="black"/>
<path d="M53.862 83.302C53.862 83.302 44.205 106.216 42.315 106C40.425 105.784 38.211 100.195 38.211 100.195L33.621 102.4C33.621 102.4 37.068 111.175 42.315 113.551C47.562 115.927 58.443 93.256 58.443 93.256L53.862 83.302Z" fill="#F3B700"/>
<path opacity="0.6" d="M53.862 83.302C53.862 83.302 44.205 106.216 42.315 106C40.425 105.784 38.211 100.195 38.211 100.195L33.621 102.4C33.621 102.4 37.068 111.175 42.315 113.551C47.562 115.927 58.443 93.256 58.443 93.256L53.862 83.302Z" fill="white"/>
<path d="M60.162 72.178C57.75 73.267 46.032 94.957 46.032 94.957L56.049 102.031L60.945 94.957C60.945 94.957 62.115 94.399 62.115 86.74C62.0588 81.8246 61.403 76.9345 60.162 72.178Z" fill="#F3B700"/>
<path d="M158.335 170.81L158.449 170.648C158.648 170.368 158.582 169.981 158.302 169.782L154.229 166.892C153.949 166.693 153.561 166.759 153.363 167.039L153.248 167.2C153.05 167.48 153.116 167.867 153.395 168.066L157.469 170.957C157.749 171.155 158.136 171.089 158.335 170.81Z" fill="#263238"/>
<path d="M34.7598 77.0789L29.1243 85.0205L23.6047 81.1038C22.7833 80.5209 22.227 79.6355 22.0583 78.6424C21.8896 77.6493 22.1224 76.6299 22.7053 75.8084L23.9449 74.0616C24.5278 73.2401 25.4132 72.6838 26.4063 72.5152C27.3994 72.3465 28.4188 72.5792 29.2402 73.1621L34.7598 77.0789Z" fill="#263238"/>
<path d="M137.94 170.044L156.021 170.287L157.146 168.703L150.9 151.711C145.418 150.646 140.222 148.434 135.654 145.222L33.117 73.6C32.8549 73.417 32.5314 73.3446 32.2163 73.3985C31.9013 73.4524 31.6202 73.6283 31.434 73.888L25.026 82.888C24.9337 83.0168 24.8678 83.1625 24.8319 83.3168C24.796 83.4712 24.7909 83.631 24.8168 83.7873C24.8427 83.9436 24.8991 84.0933 24.9829 84.2277C25.0667 84.3622 25.1761 84.4788 25.305 84.571L126.762 157.732C131.307 160.984 135.116 165.158 137.94 169.981V170.044Z" fill="#263238"/>
<path opacity="0.3" d="M137.931 170.044C135.117 165.216 131.314 161.039 126.771 157.786L102.3 140.146L101.454 139.534L100.617 138.931L33.18 90.331L32.343 89.719L31.497 89.116L25.296 84.616C25.1681 84.524 25.0597 84.4076 24.9769 84.2736C24.8941 84.1396 24.8386 83.9906 24.8135 83.835C24.7884 83.6795 24.7943 83.5206 24.8307 83.3673C24.8672 83.2141 24.9336 83.0695 25.026 82.942L31.434 73.942C31.6173 73.6815 31.8961 73.504 32.2098 73.4483C32.5234 73.3927 32.8463 73.4634 33.108 73.645L39.408 78.019L40.308 78.622L41.163 79.216L109.32 126.79L111.03 127.978L135.753 145.24C138.063 146.854 140.533 148.226 143.124 149.335C145.658 150.418 148.301 151.224 151.008 151.738L151.287 152.485L151.719 153.673L157.218 168.721L156.093 170.305L140.064 170.098H138.795L137.931 170.044Z" fill="white"/>
<path d="M135.426 154.753L135.671 154.408C136.108 153.792 135.963 152.938 135.347 152.501L113.966 137.329C113.35 136.891 112.496 137.036 112.059 137.653L111.814 137.998C111.376 138.614 111.522 139.468 112.138 139.905L133.518 155.077C134.135 155.514 134.989 155.369 135.426 154.753Z" fill="#263238"/>
<g opacity="0.2">
<path d="M138.723 170.053L151.215 152.458L151.647 153.646L139.992 170.071L138.723 170.053Z" fill="black"/>
</g>
<g opacity="0.2">
<path d="M110.958 127.96L109.248 126.772L100.617 138.931L101.463 139.543L102.3 140.155L110.958 127.96Z" fill="black"/>
</g>
<g opacity="0.2">
<path d="M41.1 79.189L40.2 78.595L39.354 77.992L31.47 89.098L32.37 89.701L33.207 90.313L41.1 79.189Z" fill="black"/>
</g>
<path d="M111.525 123.847L110.679 125.386C110.112 125.333 109.541 125.398 109.001 125.576C108.46 125.754 107.962 126.042 107.538 126.421C107.538 126.421 108.132 129.94 108.339 130.39C108.807 131.38 113.892 133.81 115.116 133.801C115.503 133.801 115.863 131.218 115.629 130.39C115.069 129.314 114.383 128.307 113.586 127.393L114.279 126.034L111.525 123.847Z" fill="#E4897B"/>
<path d="M101.256 80.269C101.256 80.269 116.835 91.51 121.299 103.795C124.647 113.029 114.63 127.456 114.63 127.456L110.4 124.333C110.4 124.333 117.438 110.743 115.638 105.064C113.838 99.385 105.243 93.751 105.243 93.751L101.256 80.269Z" fill="#F3B700"/>
<path opacity="0.6" d="M101.256 80.269C101.256 80.269 116.835 91.51 121.299 103.795C124.647 113.029 114.63 127.456 114.63 127.456L110.4 124.333C110.4 124.333 117.438 110.743 115.638 105.064C113.838 99.385 105.243 93.751 105.243 93.751L101.256 80.269Z" fill="white"/>
<path d="M116.52 92.5L111.498 101.104L109.023 100.033L104.847 98.233L102.435 87.532L99.024 72.394C103.2 74.374 116.52 92.5 116.52 92.5Z" fill="#F3B700"/>
<path d="M37.707 100.447L36.672 97.144C36.672 97.144 38.202 96.829 38.211 95.479C38.22 94.129 38.076 90.817 37.437 90.16C35.8604 88.9001 34.194 87.7571 32.451 86.74C31.659 86.335 30.804 89.368 30.768 90.691C30.732 92.014 33.621 96.352 33.621 96.352L34.8 101.833L37.707 100.447Z" fill="#E4897B"/>
<path opacity="0.2" d="M109.023 100.015L104.847 98.215L102.435 87.514C105 90.313 108.87 95.263 109.023 100.015Z" fill="black"/>
</g>
<defs>
<clipPath id="clip0_6_353">
<rect width="390" height="320" fill="white"/>
</clipPath>
</defs>
</svg>
