<svg width="150" height="150" viewBox="0 0 150 150" fill="none" xmlns="http://www.w3.org/2000/svg">
<path d="M38.1375 29.0847L38.1708 5.42499C38.1708 5.42499 38.2527 4.73055 38.8402 4.85277H44.9513C44.9513 4.85277 45.6291 5.21249 45.9722 6.16805L54.55 25.1625H54.7944L63.5194 5.70138C63.5194 5.70138 63.9111 4.85555 64.5 4.83749H70.8486C70.8486 4.83749 71.3638 4.89305 71.3875 5.40694V28.5611C71.3875 28.5611 71.3138 29.018 70.8722 29.0833H66.8527V8.47222H66.5833L56.9013 29.0361H52.2444L42.5652 8.44722H42.2958V28.4958C42.2958 28.4958 42.1972 28.9861 41.7069 29.0847H38.1375Z" fill="#232323"/>
<path d="M104.558 28.4972L93.3083 6.15277C92.9653 5.19722 92.1403 4.84583 92.1403 4.84583H87.5167C86.9861 4.80555 86.4139 5.70416 86.4139 5.70416L75.1639 28.1431C74.8042 28.7028 75 29.0014 75 29.0014L79.093 29.0542C79.6 28.7681 81.9694 23.9236 81.9694 23.9236H97.4917C97.4917 23.9236 99.6972 28.6458 100.31 29.1194H104.558C104.714 28.8639 104.558 28.4972 104.558 28.4972ZM83.5625 20.425L89.4778 8.23611H89.7875L95.8167 20.425H83.5625Z" fill="#232323"/>
<path d="M38.1375 67.7944C38.1375 67.7944 38.2194 68.0389 38.4722 68.1125H42.043C42.043 68.1125 42.6319 67.7361 42.6555 67.3194V57.5486C42.6555 57.5486 42.7291 57.3764 42.9 57.3528H49.15L60.1305 68.1125H64.8041C64.8041 68.1125 65.2 67.8958 64.918 67.393L52.8652 55.8486L64.8527 44.1333C64.8527 44.1333 64.9763 43.8611 64.7305 43.8514H59.9666L49.4513 54.1458H42.6388V44.5014C42.6388 44.5014 42.6027 43.925 41.9402 43.9125H38.8027C38.8027 43.9125 38.3652 44.0111 38.1375 44.5625V67.7944Z" fill="#232323"/>
<path d="M68.8722 44.3792C68.8722 44.3792 69.0194 43.7333 69.5416 43.8528H92.7777C92.7777 43.8528 93.1541 43.9222 93.1541 44.1833V46.8472C93.1541 46.8472 93.0555 47.2889 92.5819 47.3042H74.543V54.1833H88.0069C88.0069 54.1833 88.4625 54.1556 88.5236 54.4833C88.5277 54.5069 88.5305 54.5319 88.5305 54.5597C88.5305 54.9681 88.5305 57.0764 88.5305 57.0764C88.5305 57.0764 88.5958 57.6806 87.975 57.6972H74.4444V64.7722H93.0555V68.1056H68.8722V44.3792Z" fill="#232323"/>
<path d="M79.8653 57.6958L70.7514 66.6667C70.1958 67.1889 69.8041 66.4375 70 66.0778L88.5375 31.1514C88.5375 31.1514 88.7986 30.743 89.2403 31.0375L93.3 32.7778C93.3 32.7778 93.5375 33.0805 93.3 33.3667L77.7444 57.6972" fill="#F3B700"/>
<path d="M81.5875 54.1833L91.275 45.3278C91.6347 44.8778 92.4194 45.4583 91.9944 45.9569L71.0458 80.7028C70.8333 80.8986 70.2125 81.0139 70.4819 80.1639L83.3125 54.1833" fill="#F3B700"/>
<path d="M116.585 59.2069H119.453C122.664 59.1083 124.183 56.6333 124.257 55.2847V47.7597C124.061 44.475 120.065 43.8361 120.065 43.8361H99.3181C98.8028 43.7847 98.5944 44.4028 98.5944 44.4028V67.3319C98.5389 67.8778 99.1639 68.1042 99.1639 68.1042H102.614C103.104 67.9653 103.178 67.4917 103.178 67.4917V59.3056H111.242L120.09 68.1042H125.311L116.585 59.2069ZM103.251 55.8333V47.3361H117.042C119.46 47.2875 119.754 48.8236 119.754 48.8236V54.3139C119.362 55.6694 117.728 55.8333 117.728 55.8333H103.251Z" fill="#232323"/>
<path d="M86.1764 98.5944L89.0361 98.4958C92.2472 98.3972 93.7722 95.6556 93.8458 94.3083V86.7833C93.65 83.4986 89.6541 82.8597 89.6541 82.8597H68.9069C68.3916 82.8083 68.1833 83.4264 68.1833 83.4264V106.356C68.1277 106.901 68.7527 107.128 68.7527 107.128H72.2027C72.693 106.989 72.7666 106.515 72.7666 106.515V98.6111L80.7833 98.5778L86.1764 98.5944ZM72.8402 94.8556V86.3583H86.6305C89.0486 86.3097 89.343 87.8458 89.343 87.8458V93.3361C88.9514 94.6917 87.3166 94.8556 87.3166 94.8556H72.8402Z" fill="#232323"/>
<path d="M57.925 88.9375C57.925 88.9375 58.1041 89.4444 58.5458 89.5264H61.65C61.65 89.5264 62.2222 89.3139 62.3194 88.9375V86.6986C62.3847 83.5444 59.0847 82.9736 58.1528 82.9889H41.193C38.9708 83.0375 37.3375 85.1944 37.3208 86.7139V92.5139C37.3166 94.3111 39.9347 96.4361 41.4708 96.4028H56.7486C56.7486 96.4028 58.3666 96.7625 58.3819 98.0861V101.893C58.3819 101.893 58.4472 103.461 56.7319 103.526H42.843C42.843 103.526 41.6333 103.444 41.3889 102.268V100.928C41.3889 100.928 41.3722 100.225 40.6694 100.29H37.2222C37.2222 100.29 36.9111 100.454 36.8958 100.797V103.297C36.8958 105.781 39.5097 107.087 41.4875 107.007H58.3014C62.1903 106.828 63.0722 103.2 62.9583 102.874V97.2847C62.968 93.5917 58.7264 93.2 58.7264 93.2H44.0194C44.0194 93.2 42.3861 93.0694 41.8625 91.5667V87.8083C41.8625 87.8083 41.8625 86.5333 43.4958 86.3708H56.3722C56.3722 86.3708 57.8097 86.3375 57.9083 87.4819L57.925 88.9375Z" fill="#232323"/>
<path d="M123.458 106.518L112.208 84.1736C111.865 83.218 111.04 82.8667 111.04 82.8667H106.417C105.886 82.8264 105.314 83.725 105.314 83.725L94.0639 106.164C93.7041 106.724 93.9 107.022 93.9 107.022L97.993 107.075C98.5 106.789 100.869 101.944 100.869 101.944H116.392C116.392 101.944 118.597 106.667 119.21 107.14H123.458C123.612 106.886 123.458 106.518 123.458 106.518ZM102.461 98.4458L108.376 86.2569H108.686L114.715 98.4458H102.461Z" fill="#232323"/>
<path d="M68.0222 122.421C68.0222 122.421 68.1694 121.775 68.6917 121.894H91.9264C91.9264 121.894 92.3028 121.964 92.3028 122.225V124.889C92.3028 124.889 92.2042 125.331 91.7306 125.346H73.6931V132.225L89.2972 132.257C89.2972 132.257 89.7528 132.229 89.8139 132.557C89.818 132.581 89.8208 132.606 89.8208 132.633C89.8208 133.042 89.8208 135.15 89.8208 135.15C89.8208 135.15 89.8861 135.754 89.2653 135.771L73.5958 135.739V142.814H92.2069V146.147H68.0222V122.421Z" fill="#232323"/>
<path d="M37.9083 125.408C38.0472 124.124 38.4472 122.861 41.6833 121.879H59.1347C59.1347 121.879 62.7625 122.711 62.9583 125.408V128.546C62.9583 128.546 62.8597 128.987 62.2236 129.281H59.3805C59.3805 129.281 58.5472 129.428 58.6458 128.79V126.486C58.6458 126.486 58.1069 125.211 56.7833 125.261H44.3319C44.3319 125.261 42.3708 125.408 42.3222 127.369V141.144C42.3222 141.144 42.3222 142.222 44.4305 142.567H57.2222C57.2222 142.567 58.35 142.076 58.5944 141.342V139.136C58.5944 139.136 58.4958 138.694 59.3292 138.499H62.368C62.368 138.499 63.0055 138.547 62.9569 139.233V142.567C62.9569 142.567 62.7125 146.053 57.5153 146.149H42.7125C42.7125 146.149 38.3278 145.696 37.8111 142.322L37.9083 125.408Z" fill="#232323"/>
</svg>
